<svg width="45" height="45" viewBox="0 0 45 45" fill="none" xmlns="http://www.w3.org/2000/svg">
<path d="M17.3926 0V3.88125C15.4831 2.95313 13.4356 2.475 11.388 2.475C7.26994 2.475 3.15184 4.3875 0 8.24062L7.66104 17.6063H10.2147V20.7281C12.1933 23.1469 14.7699 24.4125 17.3696 24.5531V30.9375H10.4908V39.375C10.4908 42.4688 12.5613 45 15.092 45H38.0982C41.9172 45 45 41.2313 45 36.5625V0H17.3926ZM14.839 18.0281V11.9813H9.59356L7.20092 9.05625C8.53678 8.42601 9.95615 8.10186 11.388 8.1C14.4709 8.1 17.3466 9.5625 19.5322 12.2063L22.7761 16.1719L22.316 16.7344C21.7379 17.4478 21.0499 18.014 20.2917 18.4002C19.5335 18.7865 18.7202 18.985 17.8988 18.9844C16.8175 18.9844 15.7592 18.6469 14.839 18.0281ZM40.3988 36.5625C40.3988 38.1094 39.3635 39.375 38.0982 39.375C36.8328 39.375 35.7975 38.1094 35.7975 36.5625V30.9375H21.9939V23.6531C23.3052 23.0063 24.5245 22.05 25.5828 20.7563L26.0429 20.1938L32.5537 28.125H35.7975V24.1594L21.9939 7.36875V5.625H40.3988V36.5625Z" fill="black"/>
</svg>
