<svg width="50" height="50" viewBox="0 0 50 50" fill="none" xmlns="http://www.w3.org/2000/svg">
<path d="M29.1666 20.625V17.0834C30.3125 16.5973 31.4847 16.2327 32.6833 15.9896C33.8805 15.7466 35.1389 15.625 36.4583 15.625C37.3611 15.625 38.2465 15.6945 39.1146 15.8334C39.9826 15.9723 40.8333 16.1459 41.6666 16.3542V19.6875C40.8333 19.375 39.9916 19.141 39.1416 18.9855C38.2903 18.8285 37.3958 18.75 36.4583 18.75C35.1389 18.75 33.8715 18.9153 32.6562 19.2459C31.441 19.575 30.2778 20.0348 29.1666 20.625ZM29.1666 32.0834V28.5417C30.3125 28.0556 31.4847 27.691 32.6833 27.448C33.8805 27.2049 35.1389 27.0834 36.4583 27.0834C37.3611 27.0834 38.2465 27.1528 39.1146 27.2917C39.9826 27.4306 40.8333 27.6042 41.6666 27.8125V31.1459C40.8333 30.8334 39.9916 30.5993 39.1416 30.4438C38.2903 30.2868 37.3958 30.2084 36.4583 30.2084C35.1389 30.2084 33.8715 30.3646 32.6562 30.6771C31.441 30.9896 30.2778 31.4584 29.1666 32.0834ZM29.1666 26.3542V22.8125C30.3125 22.3264 31.4847 21.9618 32.6833 21.7188C33.8805 21.4757 35.1389 21.3542 36.4583 21.3542C37.3611 21.3542 38.2465 21.4237 39.1146 21.5625C39.9826 21.7014 40.8333 21.875 41.6666 22.0834V25.4167C40.8333 25.1042 39.9916 24.8702 39.1416 24.7146C38.2903 24.5577 37.3958 24.4792 36.4583 24.4792C35.1389 24.4792 33.8715 24.6445 32.6562 24.975C31.441 25.3042 30.2778 25.7639 29.1666 26.3542ZM13.5416 33.3334C15.1736 33.3334 16.7625 33.5153 18.3083 33.8792C19.8528 34.2445 21.3889 34.7917 22.9166 35.5209V15C21.493 14.1667 19.9826 13.5417 18.3854 13.125C16.7882 12.7084 15.1736 12.5 13.5416 12.5C12.2916 12.5 11.0507 12.6216 9.81873 12.8646C8.5854 13.1077 7.39581 13.4723 6.24998 13.9584V34.5834C7.46526 34.1667 8.6722 33.8542 9.87081 33.6459C11.068 33.4375 12.2916 33.3334 13.5416 33.3334ZM27.0833 35.5209C28.6111 34.7917 30.1479 34.2445 31.6937 33.8792C33.2382 33.5153 34.8264 33.3334 36.4583 33.3334C37.7083 33.3334 38.9326 33.4375 40.1312 33.6459C41.3285 33.8542 42.5347 34.1667 43.75 34.5834V13.9584C42.6041 13.4723 41.4153 13.1077 40.1833 12.8646C38.95 12.6216 37.7083 12.5 36.4583 12.5C34.8264 12.5 33.2118 12.7084 31.6146 13.125C30.0173 13.5417 28.5069 14.1667 27.0833 15V35.5209ZM25 41.6667C23.3333 40.3473 21.5278 39.323 19.5833 38.5938C17.6389 37.8646 15.625 37.5 13.5416 37.5C11.7014 37.5 9.77428 37.8473 7.7604 38.5417C5.74651 39.2362 3.85415 40.3125 2.08331 41.7709V11.5625C3.61109 10.5209 5.40831 9.72226 7.47498 9.16671C9.54026 8.61115 11.5625 8.33337 13.5416 8.33337C15.5555 8.33337 17.5264 8.59379 19.4541 9.11462C21.3805 9.63546 23.2291 10.4167 25 11.4584C26.7708 10.4167 28.6201 9.63546 30.5479 9.11462C32.4743 8.59379 34.4444 8.33337 36.4583 8.33337C38.4375 8.33337 40.4604 8.61115 42.5271 9.16671C44.5923 9.72226 46.3889 10.5209 47.9166 11.5625V41.7709C46.1805 40.3125 44.2972 39.2362 42.2666 38.5417C40.2347 37.8473 38.2986 37.5 36.4583 37.5C34.375 37.5 32.3611 37.8646 30.4166 38.5938C28.4722 39.323 26.6666 40.3473 25 41.6667Z" fill="black"/>
</svg>
