<svg width="50" height="50" viewBox="0 0 50 50" fill="none" xmlns="http://www.w3.org/2000/svg">
<path d="M12.5 16.6667C14.8012 16.6667 16.6666 14.8012 16.6666 12.5C16.6666 10.1989 14.8012 8.33337 12.5 8.33337C10.1988 8.33337 8.33331 10.1989 8.33331 12.5C8.33331 14.8012 10.1988 16.6667 12.5 16.6667Z" stroke="black" stroke-width="2" stroke-linecap="round" stroke-linejoin="round"/>
<path d="M25 29.1667C27.3012 29.1667 29.1666 27.3012 29.1666 25C29.1666 22.6989 27.3012 20.8334 25 20.8334C22.6988 20.8334 20.8333 22.6989 20.8333 25C20.8333 27.3012 22.6988 29.1667 25 29.1667Z" stroke="black" stroke-width="2" stroke-linecap="round" stroke-linejoin="round"/>
<path d="M12.5 41.6667C14.8012 41.6667 16.6666 39.8012 16.6666 37.5C16.6666 35.1989 14.8012 33.3334 12.5 33.3334C10.1988 33.3334 8.33331 35.1989 8.33331 37.5C8.33331 39.8012 10.1988 41.6667 12.5 41.6667Z" stroke="black" stroke-width="2" stroke-linecap="round" stroke-linejoin="round"/>
<path d="M37.5 41.6667C39.8012 41.6667 41.6666 39.8012 41.6666 37.5C41.6666 35.1989 39.8012 33.3334 37.5 33.3334C35.1988 33.3334 33.3333 35.1989 33.3333 37.5C33.3333 39.8012 35.1988 41.6667 37.5 41.6667Z" stroke="black" stroke-width="2" stroke-linecap="round" stroke-linejoin="round"/>
<path d="M6.25 25H20.8333M29.1667 25H43.75M6.25 12.5H8.33333M16.6667 12.5H43.75M6.25 37.5H8.33333M16.6667 37.5H33.3333M41.6667 37.5H43.75M12.5 6.25V8.33333M12.5 16.6667V33.3333M12.5 41.6667V43.75M25 6.25V20.8333M25 29.1667V43.75M37.5 6.25V33.3333M37.5 41.6667V43.75" stroke="black" stroke-width="2" stroke-linecap="round" stroke-linejoin="round"/>
</svg>
